<?xml version="1.0" encoding="UTF-8" standalone="no"?>
<svg
   id="visual"
   viewBox="0 0 622.88287 432.09818"
   width="622.88287"
   height="432.09818"
   version="1.1"
   xmlns="http://www.w3.org/2000/svg"
   xmlns:svg="http://www.w3.org/2000/svg">
  <defs
     id="defs1">
    <rect
       x="289.75235"
       y="239.79504"
       width="180.30617"
       height="169.55173"
       id="rect1" />
  </defs>
  <g
     transform="translate(343.27513,223.83703)"
     id="g1">
    <path
       d="m 123.8,-148.2 c 54.6,-9.3 129.1,-5.3 143.2,26.1 14,31.4 -32.5,90.3 -51.9,145.7 -19.4,55.3 -11.8,107.2 -34.4,132.8 -22.5,25.5 -75.1,24.8 -120.1,27.7 -44.9,3 -82.2,9.7 -129.3,12.8 -47.1,3.1 -104.1,2.7 -156.1,-21.9 -52.1,-24.5 -99.2,-73.1 -107.2,-127.4 -7.9,-54.3 23.3,-114.3 56.8,-167.3 33.5,-53.1 69.2,-99.2 115.4,-93.7 46.3,5.5 103,62.6 148.7,79.8 45.7,17.3 80.3,-5.3 134.9,-14.6"
       fill="#BB004B"
       id="path1"
       style="fill:#b90041;fill-opacity:1;stroke:#7b003f;stroke-width:20;stroke-linecap:butt;stroke-dasharray:none;stroke-opacity:1" />
  </g>
  <text
     xml:space="preserve"
     id="text1"
     style="font-style:normal;font-weight:normal;font-size:47.0206px;line-height:1;font-family:sans-serif;text-align:center;letter-spacing:0px;word-spacing:0px;white-space:pre;shape-inside:url(#rect1);shape-padding:0.30176;fill:#000000;fill-opacity:1;stroke:none"
     transform="matrix(1.8148072,0,0,1.8148072,-364.19681,-328.89395)"
     x="69.81916"
     y="0"><tspan
       x="306.16008"
       y="277.00296"
       id="tspan2"><tspan
         style="font-weight:bold;font-family:'Segoe UI';-inkscape-font-specification:'Segoe UI, Bold'"
         id="tspan1">I am a 
</tspan></tspan><tspan
       x="296.90749"
       y="324.45242"
       id="tspan5"><tspan
         style="font-weight:bold;font-family:'Segoe UI';-inkscape-font-specification:'Segoe UI, Bold'"
         id="tspan4">submit 
</tspan></tspan><tspan
       x="304.30037"
       y="371.90188"
       id="tspan7"><tspan
         style="font-weight:bold;font-family:'Segoe UI';-inkscape-font-specification:'Segoe UI, Bold'"
         id="tspan6">button</tspan></tspan></text>
</svg>
